{"title":"Green Lantern The Animated Series (2011) 1080P WEB-DL","uid":12575051,"size":21653279233,"categoryP":"video","categoryS":"hd___tv_shows","magnet":"?xt=urn:btih:51c123311201c20f754e21e0e796933898dccad1&amp;dn=Green+Lantern+The+Animated+Series+%282011%29+1080P+WEB-DL&amp;tr=udp%3A%2F%2Ftracker.leechers-paradise.org%3A6969&amp;tr=udp%3A%2F%2Fzer0day.ch%3A1337&amp;tr=udp%3A%2F%2Fopen.demonii.com%3A1337&amp;tr=udp%3A%2F%2Ftracker.coppersurfer.tk%3A6969&amp;tr=udp%3A%2F%2Fexodus.desync.com%3A6969","seeders":0,"leechers":2,"uploader":"jmanwf","files":25,"time":1444886942,"description":"\nThe Green Lantern lights up adventure in this all-new CG animated action series from world-renowned producer, artist and animator Bruce Timm (Batman: The Animated Series, Justice League). Based upon the DC Comics legend, this 26-episode groundbreaking superhero series follows Earth's Green Lantern, Hal Jordan, a onetime test pilot who’s used to being in dangerous situations – but he's never faced anything like this! Set in the farthest reaches of deep space, Green Lantern: The Animated Series finds Hal on the Guardian Frontier, where he must face down an invasion from the Red Lantern Corps. Powered by pure rage, the evil Red Lanterns have sworn to destroy the Green Lantern Corps and everything they stand for. Dispatched on the experimental spacecraft The Interceptor, Hal is soon joined by an all-new group of heroes on a mission to protect Guardian Space — and the Green Lantern Corps itself!\r\n\r\n\r\n\r\nALL 25 Episodes of Season 1\r\n\r\n\r\n\r\n\r\nALL In MP4\r\n\r\n\r\n\r\n\r\nVideo\r\nID : 2\r\nFormat : AVC\r\nFormat/Info : Advanced Video Codec\r\nFormat profile :   \r\nFormat settings, CABAC : Yes\r\nFormat settings, ReFrames : 4 frames\r\nCodec ID : avc1\r\nCodec ID/Info : Advanced Video Coding\r\nDuration : 21mn 52s\r\nBit rate : 4 692 Kbps\r\nWidth : 1 920 pixels\r\nHeight : 1 080 pixels\r\nDisplay aspect ratio : 16:9\r\nFrame rate mode : Constant\r\nFrame rate : 23.976 fps\r\nColor space : YUV\r\nChroma subsampling : 4:2:0\r\nBit depth : 8 bits\r\nScan type : Progressive\r\nBits/(Pixel*Frame) : 0.094\r\nStream size : 734 MiB (97%)\r\nLanguage : English\r\nEncoded date : UTC 2015-08-30 09:10:33\r\nTagged date : UTC 2015-08-30 09:12:28\r\nColor range : Limited\r\nColor primaries : BT.709\r\nTransfer characteristics : BT.709\r\nMatrix coefficients : BT.709\r\n\r\nAudio\r\nID : 1\r\nFormat : AAC\r\nFormat/Info : Advanced Audio Codec\r\nFormat profile : LC\r\nCodec ID : 40\r\nDuration : 21mn 51s\r\nBit rate mode : Variable\r\nBit rate : 125 Kbps\r\nMaximum bit rate : 190 Kbps\r\nChannel(s) : 2 channels\r\nChannel positions : Front: L R\r\nSampling rate : 48.0 KHz\r\nCompression mode : Lossy\r\nStream size : 19.6 MiB (3%)\r\nLanguage : English\r\nEncoded date : UTC 2015-08-30 09:10:33\r\nTagged date : UTC 2015-08-30 09:12:28\r\n\r\n\r\n\r\n\r\n\r\nThe Show Was Canceled After 1 Season\r\n\r\n\r\n\r\n \nhttp://s11.postimg.org/yedski2yr/image.jpg\r\n \nhttp://s11.postimg.org/yfnqdx4sj/image.jpg\r\n\r\nSOURCE: https://itunes.apple.com/us/tv-season/green-lantern-animated-series/id479280230","torrent":{"xt":"urn:btih:51c123311201c20f754e21e0e796933898dccad1","amp;dn":"Green+Lantern+The+Animated+Series+%282011%29+1080P+WEB-DL","amp;tr":["udp%3A%2F%2Ftracker.leechers-paradise.org%3A6969","udp%3A%2F%2Fzer0day.ch%3A1337","udp%3A%2F%2Fopen.demonii.com%3A1337","udp%3A%2F%2Ftracker.coppersurfer.tk%3A6969","udp%3A%2F%2Fexodus.desync.com%3A6969"],"infoHash":"51c123311201c20f754e21e0e796933898dccad1","infoHashBuffer":{"type":"Buffer","data":[81,193,35,49,18,1,194,15,117,78,33,224,231,150,147,56,152,220,202,209]},"announce":[],"urlList":[]}}